<svg width="22" height="22" viewBox="0 0 22 22" fill="none" xmlns="http://www.w3.org/2000/svg">
<path opacity="0.8" fill-rule="evenodd" clip-rule="evenodd" d="M13.9497 4.05025C16.6834 6.78392 16.6834 11.2161 13.9497 13.9497C11.2161 16.6834 6.78392 16.6834 4.05025 13.9497C1.31658 11.2161 1.31658 6.78392 4.05025 4.05025C6.78392 1.31658 11.2161 1.31658 13.9497 4.05025ZM15.7083 15.0002C18.8747 11.4665 18.7599 6.03196 15.364 2.63604C11.8492 -0.87868 6.15076 -0.87868 2.63604 2.63604C-0.87868 6.15076 -0.87868 11.8492 2.63604 15.364C5.933 18.6609 11.1515 18.8652 14.6866 15.9768C14.6805 16.2404 14.778 16.5059 14.9792 16.7071L19.9289 21.6569C20.3195 22.0474 20.9526 22.0474 21.3431 21.6569C21.7337 21.2663 21.7337 20.6332 21.3431 20.2426L16.3934 15.2929C16.2037 15.1032 15.9568 15.0057 15.7083 15.0002Z" fill="white"/>
</svg>
