<svg width="103" height="64" viewBox="0 0 103 64" fill="none" xmlns="http://www.w3.org/2000/svg">
<g clip-path="url(#clip0_14_363)">
<g clip-path="url(#clip1_14_363)">
<g clip-path="url(#clip2_14_363)">
<g clip-path="url(#clip3_14_363)">
<g clip-path="url(#clip4_14_363)">
<g clip-path="url(#clip5_14_363)">
<g clip-path="url(#clip6_14_363)">
<g clip-path="url(#clip7_14_363)">
<g clip-path="url(#clip8_14_363)">
<path d="M35.4395 21.053L29.7261 42.6446H28.7204L24.5187 26.4L24.457 25.5551L24.3644 26.4L20.1935 42.6446H19.1816L13.4436 21.053H15.3871L19.6197 37.4641L19.6814 38.2658L19.7431 37.4641L23.8955 21.053H24.9814L29.14 37.4641L29.2017 38.2658L29.2757 37.4641L33.496 21.053H35.4395ZM47.6499 42.6446H47.0329L46.0086 41.1089C45.5891 41.6599 45.0626 42.1039 44.4291 42.441C43.7957 42.7782 43.1026 42.9468 42.3499 42.9468H41.8809C41.2598 42.9468 40.6737 42.8275 40.1225 42.5891C39.5672 42.3547 39.0839 42.0319 38.6726 41.6208C38.2612 41.2096 37.9383 40.7286 37.7039 40.1777C37.4653 39.6226 37.346 39.0347 37.346 38.4138V38.2658C37.346 37.6409 37.4653 37.0529 37.7039 36.502C37.9383 35.951 38.2612 35.47 38.6726 35.0588C39.0839 34.6436 39.5672 34.3188 40.1225 34.0844C40.6737 33.85 41.2598 33.7329 41.8809 33.7329H45.7989V31.3523C45.7989 30.9823 45.7289 30.6328 45.5891 30.3039C45.4492 29.9791 45.258 29.6954 45.0153 29.4528C44.7726 29.2143 44.4888 29.0252 44.1638 28.8854C43.8389 28.7415 43.4892 28.6695 43.1149 28.6695H42.0352C41.6609 28.6695 41.3112 28.7415 40.9863 28.8854C40.6613 29.0252 40.3775 29.2143 40.1348 29.4528C39.8922 29.6954 39.7009 29.9791 39.561 30.3039C39.4212 30.6328 39.3513 30.9823 39.3513 31.3523V31.9074L37.5003 31.6052V31.4571C37.5003 30.8363 37.6175 30.2484 37.852 29.6933C38.0905 29.1424 38.4155 28.6613 38.8268 28.2502C39.2381 27.839 39.7194 27.5163 40.2706 27.2819C40.8218 27.0434 41.41 26.9242 42.0352 26.9242H43.1149C43.7402 26.9242 44.3284 27.0434 44.8795 27.2819C45.4307 27.5163 45.912 27.839 46.3233 28.2502C46.7388 28.6613 47.0637 29.1424 47.2982 29.6933C47.5326 30.2484 47.6499 30.8363 47.6499 31.4571V42.6446ZM45.7989 38.5187V35.176H41.8809C41.5107 35.176 41.1632 35.2459 40.8382 35.3857C40.5091 35.5255 40.2253 35.7187 39.9868 35.9654C39.7441 36.2121 39.5528 36.4979 39.413 36.8227C39.2731 37.1516 39.2032 37.5011 39.2032 37.8711V38.5187C39.2032 38.8887 39.2731 39.2382 39.413 39.5671C39.5528 39.8919 39.7441 40.1756 39.9868 40.4182C40.2253 40.6566 40.5091 40.8458 40.8382 40.9856C41.1632 41.1295 41.5107 41.2014 41.8809 41.2014H43.1149C43.4892 41.2014 43.8389 41.1295 44.1638 40.9856C44.4888 40.8458 44.7726 40.6566 45.0153 40.4182C45.258 40.1756 45.4492 39.8919 45.5891 39.5671C45.7289 39.2382 45.7989 38.8887 45.7989 38.5187ZM53.826 42.6446H51.975V21.053H53.826V42.6446ZM60.7672 23.5199H58.6139V21.053H60.7672V23.5199ZM60.6191 42.6446H58.7681V27.2264H60.6191V42.6446ZM75.2419 42.6446H74.6249L73.6007 41.0781C73.1812 41.6496 72.6547 42.1039 72.0212 42.441C71.3878 42.7782 70.6947 42.9468 69.9419 42.9468H69.473C68.8519 42.9468 68.2637 42.8275 67.7084 42.5891C67.1572 42.3547 66.676 42.0319 66.2646 41.6208C65.8533 41.2096 65.5304 40.7286 65.296 40.1777C65.0574 39.6226 64.9381 39.0347 64.9381 38.4138V31.4571C64.9381 30.8363 65.0574 30.2484 65.296 29.6933C65.5304 29.1424 65.8533 28.6613 66.2646 28.2502C66.676 27.839 67.1572 27.5163 67.7084 27.2819C68.2637 27.0434 68.8519 26.9242 69.473 26.9242H69.9419C70.633 26.9242 71.2746 27.0661 71.867 27.3498C72.4593 27.6293 72.9673 28.0199 73.3909 28.5215V21.053H75.2419V42.6446ZM73.3909 38.5187V31.3523C73.3909 30.9823 73.321 30.6328 73.1812 30.3039C73.0413 29.9791 72.85 29.6954 72.6074 29.4528C72.3647 29.2143 72.0809 29.0252 71.7559 28.8854C71.431 28.7415 71.0813 28.6695 70.707 28.6695H69.473C69.1028 28.6695 68.7532 28.7415 68.4241 28.8854C68.0992 29.0252 67.8174 29.2143 67.5788 29.4528C67.3362 29.6954 67.1449 29.9791 67.005 30.3039C66.8652 30.6328 66.7953 30.9823 66.7953 31.3523V38.5187C66.7953 38.8887 66.8652 39.2382 67.005 39.5671C67.1449 39.8919 67.3362 40.1756 67.5788 40.4182C67.8174 40.6566 68.0992 40.8458 68.4241 40.9856C68.7532 41.1295 69.1028 41.2014 69.473 41.2014H70.707C71.0813 41.2014 71.431 41.1295 71.7559 40.9856C72.0809 40.8458 72.3647 40.6566 72.6074 40.4182C72.85 40.1756 73.0413 39.8919 73.1812 39.5671C73.321 39.2382 73.3909 38.8887 73.3909 38.5187ZM89.2477 42.6446H87.3968V31.3523C87.3968 30.9823 87.3268 30.6328 87.187 30.3039C87.0471 29.9791 86.8559 29.6954 86.6132 29.4528C86.3746 29.2143 86.0908 29.0252 85.7617 28.8854C85.4368 28.7415 85.0892 28.6695 84.719 28.6695H83.4788C83.1086 28.6695 82.7611 28.7415 82.4361 28.8854C82.107 29.0252 81.8232 29.2143 81.5847 29.4528C81.342 29.6954 81.1507 29.9791 81.0108 30.3039C80.871 30.6328 80.8011 30.9823 80.8011 31.3523V42.6446H78.9501V27.2264H79.5671L80.5728 28.7929C80.9965 28.2214 81.5271 27.7671 82.1646 27.4299C82.8022 27.0928 83.4973 26.9242 84.2501 26.9242H84.719C85.3401 26.9242 85.9263 27.0434 86.4774 27.2819C87.0327 27.5163 87.5161 27.839 87.9274 28.2502C88.3387 28.6613 88.6616 29.1424 88.8961 29.6933C89.1305 30.2484 89.2477 30.8363 89.2477 31.4571V42.6446Z" fill="white"/>
</g>
</g>
</g>
</g>
</g>
</g>
<mask id="mask0_14_363" style="mask-type:luminance" maskUnits="userSpaceOnUse" x="0" y="-1" width="166" height="105">
<path d="M165.984 -0.0258789H0.0817566V103.618H165.984V-0.0258789Z" fill="white"/>
<g clip-path="url(#clip9_14_363)">
<g clip-path="url(#clip10_14_363)">
<g clip-path="url(#clip11_14_363)">
<g clip-path="url(#clip12_14_363)">
<g clip-path="url(#clip13_14_363)">
<g clip-path="url(#clip14_14_363)">
<g clip-path="url(#clip15_14_363)">
<path d="M35.4395 21.053L29.7261 42.6446H28.7204L24.5187 26.4L24.457 25.5551L24.3644 26.4L20.1935 42.6446H19.1816L13.4436 21.053H15.3871L19.6197 37.4641L19.6814 38.2658L19.7431 37.4641L23.8955 21.053H24.9814L29.14 37.4641L29.2017 38.2658L29.2757 37.4641L33.496 21.053H35.4395ZM47.6499 42.6446H47.0329L46.0086 41.1089C45.5891 41.6599 45.0626 42.1039 44.4291 42.441C43.7957 42.7782 43.1026 42.9468 42.3499 42.9468H41.8809C41.2598 42.9468 40.6737 42.8275 40.1225 42.5891C39.5672 42.3547 39.0839 42.0319 38.6726 41.6208C38.2612 41.2096 37.9383 40.7286 37.7039 40.1777C37.4653 39.6226 37.346 39.0347 37.346 38.4138V38.2658C37.346 37.6409 37.4653 37.0529 37.7039 36.502C37.9383 35.951 38.2612 35.47 38.6726 35.0588C39.0839 34.6436 39.5672 34.3188 40.1225 34.0844C40.6737 33.85 41.2598 33.7329 41.8809 33.7329H45.7989V31.3523C45.7989 30.9823 45.7289 30.6328 45.5891 30.3039C45.4492 29.9791 45.258 29.6954 45.0153 29.4528C44.7726 29.2143 44.4888 29.0252 44.1638 28.8854C43.8389 28.7415 43.4892 28.6695 43.1149 28.6695H42.0352C41.6609 28.6695 41.3112 28.7415 40.9863 28.8854C40.6613 29.0252 40.3775 29.2143 40.1348 29.4528C39.8922 29.6954 39.7009 29.9791 39.561 30.3039C39.4212 30.6328 39.3513 30.9823 39.3513 31.3523V31.9074L37.5003 31.6052V31.4571C37.5003 30.8363 37.6175 30.2484 37.852 29.6933C38.0905 29.1424 38.4155 28.6613 38.8268 28.2502C39.2381 27.839 39.7194 27.5163 40.2706 27.2819C40.8218 27.0434 41.41 26.9242 42.0352 26.9242H43.1149C43.7402 26.9242 44.3284 27.0434 44.8795 27.2819C45.4307 27.5163 45.912 27.839 46.3233 28.2502C46.7388 28.6613 47.0637 29.1424 47.2982 29.6933C47.5326 30.2484 47.6499 30.8363 47.6499 31.4571V42.6446ZM45.7989 38.5187V35.176H41.8809C41.5107 35.176 41.1632 35.2459 40.8382 35.3857C40.5091 35.5255 40.2253 35.7187 39.9868 35.9654C39.7441 36.2121 39.5528 36.4979 39.413 36.8227C39.2731 37.1516 39.2032 37.5011 39.2032 37.8711V38.5187C39.2032 38.8887 39.2731 39.2382 39.413 39.5671C39.5528 39.8919 39.7441 40.1756 39.9868 40.4182C40.2253 40.6566 40.5091 40.8458 40.8382 40.9856C41.1632 41.1295 41.5107 41.2014 41.8809 41.2014H43.1149C43.4892 41.2014 43.8389 41.1295 44.1638 40.9856C44.4888 40.8458 44.7726 40.6566 45.0153 40.4182C45.258 40.1756 45.4492 39.8919 45.5891 39.5671C45.7289 39.2382 45.7989 38.8887 45.7989 38.5187ZM53.826 42.6446H51.975V21.053H53.826V42.6446ZM60.7672 23.5199H58.6139V21.053H60.7672V23.5199ZM60.6191 42.6446H58.7681V27.2264H60.6191V42.6446ZM75.2419 42.6446H74.6249L73.6007 41.0781C73.1812 41.6496 72.6547 42.1039 72.0212 42.441C71.3878 42.7782 70.6947 42.9468 69.9419 42.9468H69.473C68.8519 42.9468 68.2637 42.8275 67.7084 42.5891C67.1572 42.3547 66.676 42.0319 66.2646 41.6208C65.8533 41.2096 65.5304 40.7286 65.296 40.1777C65.0574 39.6226 64.9381 39.0347 64.9381 38.4138V31.4571C64.9381 30.8363 65.0574 30.2484 65.296 29.6933C65.5304 29.1424 65.8533 28.6613 66.2646 28.2502C66.676 27.839 67.1572 27.5163 67.7084 27.2819C68.2637 27.0434 68.8519 26.9242 69.473 26.9242H69.9419C70.633 26.9242 71.2746 27.0661 71.867 27.3498C72.4593 27.6293 72.9673 28.0199 73.3909 28.5215V21.053H75.2419V42.6446ZM73.3909 38.5187V31.3523C73.3909 30.9823 73.321 30.6328 73.1812 30.3039C73.0413 29.9791 72.85 29.6954 72.6074 29.4528C72.3647 29.2143 72.0809 29.0252 71.7559 28.8854C71.431 28.7415 71.0813 28.6695 70.707 28.6695H69.473C69.1028 28.6695 68.7532 28.7415 68.4241 28.8854C68.0992 29.0252 67.8174 29.2143 67.5788 29.4528C67.3362 29.6954 67.1449 29.9791 67.005 30.3039C66.8652 30.6328 66.7953 30.9823 66.7953 31.3523V38.5187C66.7953 38.8887 66.8652 39.2382 67.005 39.5671C67.1449 39.8919 67.3362 40.1756 67.5788 40.4182C67.8174 40.6566 68.0992 40.8458 68.4241 40.9856C68.7532 41.1295 69.1028 41.2014 69.473 41.2014H70.707C71.0813 41.2014 71.431 41.1295 71.7559 40.9856C72.0809 40.8458 72.3647 40.6566 72.6074 40.4182C72.85 40.1756 73.0413 39.8919 73.1812 39.5671C73.321 39.2382 73.3909 38.8887 73.3909 38.5187ZM89.2477 42.6446H87.3968V31.3523C87.3968 30.9823 87.3268 30.6328 87.187 30.3039C87.0471 29.9791 86.8559 29.6954 86.6132 29.4528C86.3746 29.2143 86.0908 29.0252 85.7617 28.8854C85.4368 28.7415 85.0892 28.6695 84.719 28.6695H83.4788C83.1086 28.6695 82.7611 28.7415 82.4361 28.8854C82.107 29.0252 81.8232 29.2143 81.5847 29.4528C81.342 29.6954 81.1507 29.9791 81.0108 30.3039C80.871 30.6328 80.8011 30.9823 80.8011 31.3523V42.6446H78.9501V27.2264H79.5671L80.5728 28.7929C80.9965 28.2214 81.5271 27.7671 82.1646 27.4299C82.8022 27.0928 83.4973 26.9242 84.2501 26.9242H84.719C85.3401 26.9242 85.9263 27.0434 86.4774 27.2819C87.0327 27.5163 87.5161 27.839 87.9274 28.2502C88.3387 28.6613 88.6616 29.1424 88.8961 29.6933C89.1305 30.2484 89.2477 30.8363 89.2477 31.4571V42.6446Z" fill="black" stroke="black" stroke-width="84.1157" stroke-linejoin="round"/>
</g>
</g>
</g>
</g>
</g>
</g>
</g>
</mask>
<g mask="url(#mask0_14_363)">
<g clip-path="url(#clip16_14_363)">
<path fill-rule="evenodd" clip-rule="evenodd" d="M39.4279 51.8542H45.3868V47.8834H39.4279V51.8542ZM39.4279 39.9417H55.3183V45.8979H59.2909V39.9417H63.2634V35.9708H39.4279V39.9417ZM67.236 22.0728C67.236 20.9769 66.3442 20.0874 65.2497 20.0874H37.4416C36.3472 20.0874 35.4553 20.9769 35.4553 22.0728V53.8396C35.4553 54.9356 36.3472 55.8251 37.4416 55.8251H65.2497C66.3442 55.8251 67.236 54.9356 67.236 53.8396V22.0728ZM71.2086 22.0728V53.8396C71.2086 57.1235 68.5351 59.7959 65.2497 59.7959V63.7668H61.2771V59.7959H41.4142V63.7668H37.4416V59.7959C34.1563 59.7959 31.4827 57.1235 31.4827 53.8396V22.0728C31.4827 18.7889 34.1563 16.1166 37.4416 16.1166H65.2497C68.5351 16.1166 71.2086 18.7889 71.2086 22.0728ZM45.3868 12.1457H41.4142V6.18943C41.4142 2.90554 44.0877 0.233154 47.3731 0.233154H55.3183C58.6036 0.233154 61.2771 2.90554 61.2771 6.18943V12.1457H57.3046V6.18943C57.3046 5.09348 56.4127 4.204 55.3183 4.204H47.3731C46.2786 4.204 45.3868 5.09348 45.3868 6.18943V12.1457Z" fill="white"/>
</g>
</g>
</g>
</g>
</g>
<defs>
<clipPath id="clip0_14_363">
<rect width="102.691" height="64" fill="white"/>
</clipPath>
<clipPath id="clip1_14_363">
<rect width="102.528" height="64.0518" fill="white" transform="translate(0.0817566 -0.0258789)"/>
</clipPath>
<clipPath id="clip2_14_363">
<rect width="102.528" height="64.0518" fill="white" transform="translate(0.0817566 -0.0258789)"/>
</clipPath>
<clipPath id="clip3_14_363">
<rect width="82.0222" height="26.8276" fill="white" transform="translate(10.3345 18.5862)"/>
</clipPath>
<clipPath id="clip4_14_363">
<rect width="82.0222" height="26.8276" fill="white" transform="translate(10.3345 18.5862)"/>
</clipPath>
<clipPath id="clip5_14_363">
<rect width="82.0222" height="26.8276" fill="white" transform="translate(10.3345 18.5862)"/>
</clipPath>
<clipPath id="clip6_14_363">
<rect width="82.0222" height="26.8276" fill="white" transform="translate(10.3345 18.5862)"/>
</clipPath>
<clipPath id="clip7_14_363">
<rect width="82.0222" height="26.8276" fill="white" transform="translate(10.3345 18.5862)"/>
</clipPath>
<clipPath id="clip8_14_363">
<rect width="82.0222" height="26.8276" fill="white" transform="translate(10.3345 18.5862)"/>
</clipPath>
<clipPath id="clip9_14_363">
<rect width="82.0222" height="26.8276" fill="white" transform="translate(10.3345 18.5862)"/>
</clipPath>
<clipPath id="clip10_14_363">
<rect width="82.0222" height="26.8276" fill="white" transform="translate(10.3345 18.5862)"/>
</clipPath>
<clipPath id="clip11_14_363">
<rect width="82.0222" height="26.8276" fill="white" transform="translate(10.3345 18.5862)"/>
</clipPath>
<clipPath id="clip12_14_363">
<rect width="82.0222" height="26.8276" fill="white" transform="translate(10.3345 18.5862)"/>
</clipPath>
<clipPath id="clip13_14_363">
<rect width="82.0222" height="26.8276" fill="white" transform="translate(10.3345 18.5862)"/>
</clipPath>
<clipPath id="clip14_14_363">
<rect width="82.0222" height="26.8276" fill="white" transform="translate(10.3345 18.5862)"/>
</clipPath>
<clipPath id="clip15_14_363">
<rect width="82.0222" height="26.8276" fill="white" transform="translate(10.3345 18.5862)"/>
</clipPath>
<clipPath id="clip16_14_363">
<rect width="39.7259" height="63.5336" fill="white" transform="translate(31.4827 0.233154)"/>
</clipPath>
</defs>
</svg>
